# xmcd CD database file
#
# Track frame offsets:
#	150
#	19390
#	38970
#	60007
#	80470
#	85393
#	104484
#	126878
#	143239
#	174340
#
# Disc length: 3462 seconds
#
# Revision: 0
# Processed by: cddbd v1.5.1PL0 Copyright (c) Steve Scherf et al.
# Submitted via: Feurio! 1.68 - http://www.feurio.com
#
DISCID=7e0d840a
DTITLE=MindGrinder - Riot Detonator
DYEAR=2005
DGENRE=Death Metal
TTITLE0=Warhead
TTITLE1=Pathetic submission
TTITLE2=The rebellion
TTITLE3=Transition
TTITLE4=Epilogue
TTITLE5=Hellfire
TTITLE6=Concept of honesty
TTITLE7=Death_s disciples
TTITLE8=Obligation to prevail
TTITLE9=Data: Videos
EXTD=
EXTT0=
EXTT1=
EXTT2=
EXTT3=
EXTT4=
EXTT5=
EXTT6=
EXTT7=
EXTT8=
EXTT9=
PLAYORDER=
